<svg xmlns="http://www.w3.org/2000/svg" viewBox="0 0 152 75">
    <defs>
        <style>.cls-3{fill:#fc2d2d;}.cls-4{fill:#fff;}</style>
    </defs>
    <rect x="0" y="0" width="152" height="75" fill="#2949e5"/>
    <g class="cls-2">
        <path class="cls-3"
              d="M2.06,42.73a4.93,4.93,0,0,0,.27,2,3.29,3.29,0,0,0,.93,1.37,2.71,2.71,0,0,0,1.92.66,2.67,2.67,0,0,0,2.12-1l.31.88,1.61,0,.16-9.18L5.59,37.4l0,2.28,1.08,0L6.57,43a1.67,1.67,0,0,1-.11.68.8.8,0,0,1-.82.66.71.71,0,0,1-.52-.21A1.61,1.61,0,0,1,4.77,43L5,31.91a1.78,1.78,0,0,1,.11-.67.84.84,0,0,1,.82-.66.74.74,0,0,1,.54.21A1.64,1.64,0,0,1,6.76,32l0,2.83,2.7,0L9.47,32a5.12,5.12,0,0,0-.41-2c-.05-.11-.11-.22-.17-.33l-6.45,1a5.49,5.49,0,0,0-.19,1.18Z"/>
        <path class="cls-3"
              d="M14.54,46.73,14.67,39h.73l1.27,7.8,2.71,0-1.58-9c1-.68,1.55-2.33,1.58-4.16.05-2.9-.87-4.66-3-5.21l-4.21.67-.3,17.53ZM14.81,31a1.84,1.84,0,0,1,1.27.4,3,3,0,0,1,.69,2.37A2.91,2.91,0,0,1,16,36.07a1.84,1.84,0,0,1-1.29.38Z"/>
        <polygon class="cls-3"
                 points="27.7 46.96 27.75 44.18 24.27 44.12 24.35 39.05 26.86 39.1 26.91 36.14 24.41 36.09 24.49 31.25 27.98 31.31 28.02 28.53 21.83 28.42 21.51 46.85 27.7 46.96"/>
        <polygon class="cls-3"
                 points="32.32 47.04 32.5 36.59 32.65 36.59 32.86 37.45 35.33 47.1 37.73 47.14 38.06 28.7 35.57 28.66 35.39 39.12 35.24 39.12 35.03 38.26 32.56 28.61 30.16 28.57 29.84 47 32.32 47.04"/>
        <polygon class="cls-3"
                 points="39.67 44.26 39.62 47.17 46.79 47.3 46.84 44.61 42.52 44.54 47.06 31.55 47.11 28.86 40.54 28.75 40.49 31.43 44.13 31.5 39.67 44.26"/>
        <polygon class="cls-3"
                 points="54.91 44.65 51.43 44.59 51.52 39.53 54.02 39.57 54.08 36.61 51.57 36.57 51.65 31.73 55.14 31.79 55.19 29 48.99 28.89 48.67 47.33 52.03 47.39 54.87 46.94 54.91 44.65"/>
        <polygon class="cls-3"
                 points="59.66 37.06 59.81 37.06 60.02 37.92 62.04 45.8 64.94 45.34 65.22 29.18 62.74 29.14 62.55 39.59 62.4 39.59 62.19 38.73 59.73 29.08 57.32 29.04 57.01 46.6 59.5 46.2 59.66 37.06"/>
        <path class="cls-3"
              d="M5.15,28l-1-6.11.39-1.59.09-.39h.07l.13.36L8,27.89l2.6-.41L5.87,15.7l1.5-6.38-2.6.41L3.5,16.16l-.07.31-.1,0-1-6.37-2.68.42L2.53,28.75l1.26-.2,0,0A3.19,3.19,0,0,1,5.15,28"/>
        <polygon class="cls-3"
                 points="18.12 23.46 14.68 24.01 13.88 19.01 16.36 18.61 15.9 15.69 13.42 16.08 12.66 11.3 16.11 10.76 15.67 8.01 9.55 8.97 12.44 27.18 18.56 26.21 18.12 23.46"/>
        <rect class="cls-3" x="19.2" y="7.35" width="2.71" height="18.44" transform="translate(-2.34 3.42) rotate(-9)"/>
        <polygon class="cls-3"
                 points="26.76 14.33 26.91 14.3 27.26 15.11 31.37 24.19 33.74 23.81 30.86 5.6 28.41 5.99 30.04 16.32 29.9 16.34 29.54 15.54 25.43 6.46 23.06 6.84 25.94 25.05 28.39 24.66 26.76 14.33"/>
        <polygon class="cls-3"
                 points="42.03 19.68 38.59 20.22 37.79 15.22 40.27 14.83 39.81 11.9 37.33 12.3 36.57 7.51 40.02 6.97 39.58 4.22 33.46 5.19 36.35 23.4 42.47 22.43 42.03 19.68"/>
        <path class="cls-3"
              d="M44.57,50.85a3.32,3.32,0,0,0-2.15-.3A3.17,3.17,0,0,0,39.61,53a5,5,0,0,0-.14,2l1.7,10.73a5.28,5.28,0,0,0,.76,1.91,3.37,3.37,0,0,0,1.25,1.17,3.3,3.3,0,0,0,2.18.29,3.16,3.16,0,0,0,2-1,3.47,3.47,0,0,0,.86-1.5,5.12,5.12,0,0,0,.13-2l-1.7-10.73A4.91,4.91,0,0,0,45.85,52a3.43,3.43,0,0,0-1.28-1.19m1.06,14.23a1.57,1.57,0,0,1,0,.68.8.8,0,0,1-.69.8.71.71,0,0,1-.55-.12,1.58,1.58,0,0,1-.55-1.08l-1.7-10.73a2,2,0,0,1,0-.68.85.85,0,0,1,.69-.8.8.8,0,0,1,.58.12,1.68,1.68,0,0,1,.52,1.08Z"/>
        <path class="cls-3"
              d="M56.51,53.91c-.54-3.45-2.19-5-5.39-4.53l-2.68.42L51.33,68,54,67.59l-1.21-7.68.72-.12,2.6,7.46,2.68-.42-3.11-8.55c.91-.85,1.12-2.56.83-4.37M53.6,56.83a1.91,1.91,0,0,1-1.2.6L51.54,52a1.86,1.86,0,0,1,1.32.17A3,3,0,0,1,54,54.42a3,3,0,0,1-.35,2.41"/>
        <path class="cls-3"
              d="M62.48,47.53a4.17,4.17,0,0,0-1.11,0,3.42,3.42,0,0,0-2,1A3.5,3.5,0,0,0,58.56,50a5,5,0,0,0-.13,2l1.7,10.72a4.92,4.92,0,0,0,.61,1.94,3.35,3.35,0,0,0,1.15,1.19,2.77,2.77,0,0,0,2,.31,2.68,2.68,0,0,0,1.91-1.39l.46.81,1.58-.25-1.43-9.06-3.74.59L63,59.17,64.1,59l.52,3.3a1.74,1.74,0,0,1,0,.68.8.8,0,0,1-.69.8.71.71,0,0,1-.55-.12,1.58,1.58,0,0,1-.55-1.08L61.1,51.63a1.73,1.73,0,0,1,0-.68.83.83,0,0,1,1.26-.69,1.71,1.71,0,0,1,.53,1.09l.44,2.8L66,53.72l-.45-2.79A5,5,0,0,0,64.81,49a3.09,3.09,0,0,0-2.07-1.47h-.25Z"/>
        <polygon class="cls-3"
                 points="37.49 52.15 36.62 50.41 34.73 51.64 34.64 50.14 34.59 49.23 32.67 49.53 32.9 50.42 33.28 51.87 31.11 51.29 30.82 53.21 33.09 53.34 31.75 55.45 33.48 56.33 34.37 54.07 35.92 55.94 37.29 54.57 35.37 52.98 37.49 52.15"/>
        <path class="cls-4"
              d="M74.85,42.73a5.11,5.11,0,0,0,.26,2A3.49,3.49,0,0,0,76,46.11a2.74,2.74,0,0,0,1.92.66,2.68,2.68,0,0,0,2.13-1l.31.88,1.61,0,.16-9.18-3.79-.06,0,2.28,1.08,0L79.36,43a2.1,2.1,0,0,1-.11.68.8.8,0,0,1-.82.66.69.69,0,0,1-.52-.21A1.57,1.57,0,0,1,77.55,43l.2-11.09a1.78,1.78,0,0,1,.11-.67.83.83,0,0,1,.81-.66.75.75,0,0,1,.55.21A1.64,1.64,0,0,1,79.55,32l0,2.83,2.71,0L82.26,32a5,5,0,0,0-.42-2,2.49,2.49,0,0,0-.16-.33l-6.45,1A5.49,5.49,0,0,0,75,31.87Z"/>
        <path class="cls-4"
              d="M87.32,46.73,87.46,39h.73l1.26,7.8,2.71,0-1.57-9c1-.68,1.54-2.33,1.58-4.16,0-2.9-.88-4.66-3-5.21l-4.21.67-.31,17.53ZM87.6,31a1.87,1.87,0,0,1,1.27.4,3,3,0,0,1,.69,2.37,3,3,0,0,1-.77,2.32,1.84,1.84,0,0,1-1.29.38Z"/>
        <polygon class="cls-4"
                 points="100.49 46.96 100.54 44.18 97.05 44.12 97.14 39.05 99.65 39.1 99.7 36.14 97.19 36.09 97.28 31.25 100.76 31.31 100.81 28.53 94.62 28.42 94.3 46.85 100.49 46.96"/>
        <polygon class="cls-4"
                 points="105.11 47.04 105.29 36.59 105.44 36.59 105.65 37.45 108.11 47.1 110.52 47.14 110.84 28.7 108.36 28.66 108.18 39.12 108.03 39.12 107.82 38.26 105.35 28.61 102.94 28.57 102.62 47 105.11 47.04"/>
        <polygon class="cls-4"
                 points="112.45 44.26 112.4 47.17 119.58 47.3 119.62 44.61 115.31 44.54 119.85 31.55 119.9 28.86 113.33 28.75 113.28 31.43 116.92 31.5 112.45 44.26"/>
        <polygon class="cls-4"
                 points="127.7 44.65 124.22 44.59 124.3 39.53 126.81 39.57 126.86 36.61 124.36 36.57 124.44 31.73 127.93 31.79 127.97 29 121.78 28.89 121.46 47.33 124.81 47.39 127.66 46.94 127.7 44.65"/>
        <polygon class="cls-4"
                 points="132.45 37.06 132.6 37.06 132.81 37.92 134.83 45.8 137.72 45.34 138.01 29.18 135.52 29.14 135.34 39.59 135.19 39.59 134.98 38.73 132.51 29.08 130.11 29.04 129.8 46.6 132.29 46.2 132.45 37.06"/>
        <path class="cls-4"
              d="M77.94,28l-1-6.11.38-1.59.09-.39h.08l.13.36,3.11,7.63,2.61-.41L78.66,15.7l1.5-6.38-2.6.41-1.27,6.43-.08.31-.1,0-1-6.37-2.68.42,2.88,18.21,1.27-.2s0,0,0,0A3.19,3.19,0,0,1,77.94,28"/>
        <polygon class="cls-4"
                 points="90.91 23.46 87.47 24.01 86.67 19.01 89.15 18.61 88.69 15.69 86.21 16.08 85.45 11.3 88.89 10.76 88.46 8.01 82.34 8.97 85.22 27.18 91.34 26.21 90.91 23.46"/>
        <rect class="cls-4" x="91.99" y="7.35" width="2.71" height="18.44"
              transform="translate(-1.44 14.8) rotate(-9)"/>
        <polygon class="cls-4"
                 points="99.54 14.33 99.69 14.3 100.05 15.11 104.15 24.19 106.53 23.81 103.65 5.6 101.19 5.99 102.83 16.32 102.68 16.34 102.33 15.54 98.22 6.46 95.84 6.84 98.73 25.05 101.18 24.66 99.54 14.33"/>
        <polygon class="cls-4"
                 points="114.82 19.68 111.37 20.22 110.58 15.22 113.06 14.83 112.6 11.9 110.12 12.3 109.36 7.51 112.8 6.97 112.37 4.22 106.25 5.19 109.13 23.4 115.25 22.43 114.82 19.68"/>
        <path class="cls-4"
              d="M117.36,50.85a3.35,3.35,0,0,0-2.16-.3,3.45,3.45,0,0,0-2,1A3.38,3.38,0,0,0,112.4,53a4.85,4.85,0,0,0-.14,2L114,65.79a5.11,5.11,0,0,0,.76,1.91A3.37,3.37,0,0,0,116,68.87a3.3,3.3,0,0,0,2.18.29,3.19,3.19,0,0,0,2-1,3.35,3.35,0,0,0,.85-1.5,4.78,4.78,0,0,0,.13-2L119.4,53.93a5.08,5.08,0,0,0-.76-1.89,3.51,3.51,0,0,0-1.28-1.19m1.06,14.23a2,2,0,0,1,0,.68.8.8,0,0,1-.69.8.71.71,0,0,1-.55-.12,1.58,1.58,0,0,1-.55-1.08l-1.7-10.73a2,2,0,0,1,0-.68.85.85,0,0,1,.69-.8.76.76,0,0,1,.57.12,1.64,1.64,0,0,1,.53,1.08Z"/>
        <path class="cls-4"
              d="M129.3,53.91c-.55-3.45-2.2-5-5.39-4.53l-2.68.42L124.12,68l2.67-.42-1.22-7.68.72-.12,2.61,7.46,2.67-.42-3.1-8.55c.9-.85,1.11-2.56.83-4.37m-2.92,2.92a1.89,1.89,0,0,1-1.2.6l-.85-5.4a1.86,1.86,0,0,1,1.32.17,3,3,0,0,1,1.09,2.22,3,3,0,0,1-.36,2.41"/>
        <path class="cls-4"
              d="M135.27,47.53a4.17,4.17,0,0,0-1.11,0A3.17,3.17,0,0,0,131.35,50a5.2,5.2,0,0,0-.14,2l1.7,10.72a5.27,5.27,0,0,0,.61,1.94,3.38,3.38,0,0,0,1.16,1.19,2.76,2.76,0,0,0,2,.31,2.68,2.68,0,0,0,1.92-1.39l.46.81,1.58-.25-1.44-9.06-3.74.59.36,2.25,1.07-.17.52,3.3a1.71,1.71,0,0,1,0,.68.79.79,0,0,1-.68.8.71.71,0,0,1-.55-.12,1.63,1.63,0,0,1-.56-1.08l-1.73-10.95a2,2,0,0,1,0-.68.83.83,0,0,1,1.27-.69,1.66,1.66,0,0,1,.52,1.09l.45,2.8,2.67-.43-.44-2.79a4.85,4.85,0,0,0-.76-1.89,3.53,3.53,0,0,0-1.28-1.2,3.4,3.4,0,0,0-.78-.27h-.25Z"/>
        <polygon class="cls-4"
                 points="110.27 52.15 109.41 50.41 107.52 51.64 107.43 50.14 107.37 49.23 105.46 49.53 105.69 50.42 106.07 51.87 103.89 51.29 103.61 53.21 105.88 53.34 104.53 55.45 106.26 56.33 107.16 54.07 108.71 55.94 110.08 54.57 108.15 52.98 110.27 52.15"/>
    </g>
</svg>
